<?xml version="1.0" encoding="utf-8"?>
<!-- Generator: Adobe Illustrator 21.1.0, SVG Export Plug-In . SVG Version: 6.00 Build 0)  -->
<svg version="1.1" id="Layer_1" xmlns="http://www.w3.org/2000/svg" xmlns:xlink="http://www.w3.org/1999/xlink" x="0px" y="0px"
	 viewBox="0 0 1013.8 346.8" style="enable-background:new 0 0 1013.8 346.8;" xml:space="preserve">
<style type="text/css">
	<!-- .st0{stroke:#58595B;stroke-miterlimit:10;} -->
	.st1{fill:#FFFFFF;}
	.st2{fill:#404041;}
</style>
<polygon class="st0" points="839.8,0.6 563.2,70.4 563.2,11.7 532.3,42.6 506.9,42.6 481.5,42.6 450.6,11.7 450.6,70.4 173.9,0.6
	1.1,273.3 160.1,233.5 265.9,319.3 375.3,265.4 506.9,346.2 638.5,265.4 747.9,319.3 853.7,233.5 1012.7,273.3 "/>
<g>
	<path class="st1" d="M424.4,128.8v21.6c-1.6,1.6-2.5,2.5-4.1,4.1H402V94.7h18.3c1.6,1.6,2.5,2.5,4.1,4.1v21.9l-1.3,1.3l0,0
		l-2.2,2.2l-0.5,0.6l0,0C421.9,126.3,422.8,127.2,424.4,128.8z M408.6,127.4v1.2l9.2-9.1v-19.3h-9.2V127.4z M417.8,127.4v-0.2
		l-9.2,9.1V149h9.2v-18.4V127.4z"/>
	<path class="st1" d="M463.3,154.5h-6.6l-3-24.5l-7.1,7.1l-2.1,17.4h-6.7l8.4-59.8h8.5L463.3,154.5z M452.9,123.2l-2.3-19l-2.9,24.1
		L452.9,123.2z"/>
	<path class="st1" d="M483.9,100.3h-7.2l0.8-5.6H497l0.8,5.6h-7.2v54.1h-6.7L483.9,100.3L483.9,100.3z"/>
	<path class="st1" d="M536.9,94.7v59.8h-6.4V124v-4v-5.4l-3.2,10l-3.2,10l-3.2-10l-3.2-10v39.8h-6.4V94.7h6.4l6.4,19.9l6.4-19.9
		H536.9z"/>
	<path class="st1" d="M575.9,154.5h-6.6l-3-24.5l-7.1,7.1l-2.1,17.4h-6.7l8.4-59.8h8.5L575.9,154.5z M565.4,123.2l-2.3-19l-2.9,24.1
		L565.4,123.2z"/>
	<path class="st1" d="M611.8,94.7v59.7l0,0h-6.4l-9.6-35.8v35.8h-6.4V94.7h6.4l9.6,35.8v-1.1v-3.2V94.7H611.8z"/>
</g>
<g>
	<path class="st2" d="M281.2,168.4v72.1h-7.8v-36.8v-4.8v-6.5l-3.9,12l-3.9,12l-3.9-12l-3.9-12v48.1h-7.8v-72.1h7.8l7.8,24l7.8-24
		H281.2z"/>
	<path class="st2" d="M324.2,235.6v-62.3c1.9-1.9,3-3,4.9-4.9h17.5c1.9,1.9,3,3,4.9,4.9v62.3c-1.9,1.9-3,3-4.9,4.9h-17.5
		C327.2,238.6,326.2,237.5,324.2,235.6z M332.3,175.1v58.7h11.3v-58.7H332.3z"/>
	<path class="st2" d="M421.8,168.4v72.1h0H414l-11.6-43.2v43.2h-7.8v-72.1h7.8l11.6,43.2v-1.3v-3.9v-38H421.8z"/>
	<path class="st2" d="M464.7,235.6v-12.4h8v10.6h9.4v-14.1l-15.9-27.6c-1.5-2.5-1.5-5.1-1.5-5.1v-13.7c1.9-1.9,3-3,4.9-4.9h12.7h2.9
		c1.9,1.9,3,3,4.9,4.9v12.4h-8v-10.6h-9.4v12.7l16,27.6c1.5,2.6,1.4,5,1.4,5v15.2c-1.9,1.9-3,3-4.9,4.9h-2.9h-12.7
		C467.7,238.6,466.6,237.5,464.7,235.6z"/>
	<path class="st2" d="M541.9,175.2h-8.6l1-6.8h23.4l1,6.8H550v65.3h-8.1V175.2z"/>
	<path class="st2" d="M601.6,168.4h21.7l1,6.7h-14.7V201h12.3v6.8h-12.3v26h14.7l-1,6.7h-21.7V168.4z"/>
	<path class="st2" d="M681.5,211.6l-6.2,6.2v22.8h-8v-72.1h21.5c1.9,1.9,3,3,4.9,4.9v26.2c-1.9,1.9-3,3-4.9,4.9h-0.1l-0.4,0.4
		l7,35.6h-8.3L681.5,211.6z M675.2,175.2v33.3l10.4-10.3v-23H675.2z"/>
	<path class="st2" d="M738.2,235.6v-12.4h8v10.6h9.4v-14.1l-15.9-27.6c-1.5-2.5-1.5-5.1-1.5-5.1v-13.7c1.9-1.9,3-3,4.9-4.9h12.7h2.9
		c1.9,1.9,3,3,4.9,4.9v12.4h-8v-10.6h-9.4v12.7l16,27.6c1.5,2.6,1.4,5,1.4,5v15.2c-1.9,1.9-3,3-4.9,4.9h-2.9h-12.7
		C741.2,238.6,740.1,237.5,738.2,235.6z"/>
</g>
</svg>
